<svg id="Layer_1" enable-background="new 0 0 512 512" height="512" viewBox="0 0 512 512" width="512" xmlns="http://www.w3.org/2000/svg"><g><path d="m308.214 287.067c-8.284 0-15-6.716-15-15v-80.333c0-8.284 6.716-15 15-15h64.267c8.284 0 15 6.716 15 15v16.066c0 43.708-35.559 79.267-79.267 79.267z" fill="#82d2ff"/><path d="m115.414 230.833c-8.284 0-15-6.716-15-15v-88.383c0-27.157-22.094-49.25-49.25-49.25-6.067 0-11.544-3.655-13.866-9.26s-1.046-12.057 3.244-16.347c45.339-45.34 116.94-50.148 167.752-12.227 8.134 6.07 8.006 18.313-.238 24.217-23.089 16.535-77.642 65.383-77.642 150.961v.29c0 8.284-6.716 14.999-15 14.999z" fill="#82d2ff"/><path d="m315.958 206.733h112.756c25.938 0 47.133-20.968 47.133-47.149 0-20.976-13.778-38.794-32.768-44.881-6.422-64.315-60.853-114.703-126.832-114.703h-.289c-118.851 0-215.544 96.692-215.544 215.552 0 116.979 93.671 212.492 209.945 215.472 6.937 45.778 46.554 80.976 94.239 80.976h16.083c8.284 0 15-6.716 15-15v-16.067c0-26.602-13.186-50.167-33.35-64.552 20.164-14.385 33.35-37.95 33.35-64.552v-15.496c0-8.284-6.716-15-15-15h-16.645c-47.091 0-86.263 34.532-93.538 79.608-51.213-2.829-91.717-45.189-91.717-97.031-.001-53.751 43.505-97.177 97.177-97.177z" fill="#5faaee"/><circle clip-rule="evenodd" cx="356.414" cy="111.4" fill="#2d3746" fill-rule="evenodd" r="15"/><path d="m420.68 321.333h-16.645c-47.091 0-86.263 34.532-93.538 79.608-51.213-2.829-91.717-45.189-91.717-97.031 0-53.751 43.506-97.177 97.178-97.177h-215.349c-.118 2.927-.195 5.864-.195 8.819 0 116.979 93.671 212.492 209.945 215.472 6.937 45.778 46.554 80.976 94.239 80.976h16.083c8.284 0 15-6.716 15-15v-16.067c0-26.602-13.186-50.167-33.35-64.552 20.164-14.385 33.35-37.95 33.35-64.552v-15.496c-.001-8.284-6.716-15-15.001-15z" fill="#3c82dc"/></g></svg>